<svg xmlns:dc="http://purl.org/dc/elements/1.1/" xmlns:cc="http://creativecommons.org/ns#" xmlns:rdf="http://www.w3.org/1999/02/22-rdf-syntax-ns#" xmlns:svg="http://www.w3.org/2000/svg" xmlns="http://www.w3.org/2000/svg" xmlns:sodipodi="http://sodipodi.sourceforge.net/DTD/sodipodi-0.dtd" xmlns:inkscape="http://www.inkscape.org/namespaces/inkscape" xml:space="preserve" version="1.0" style="" viewBox="0 0 100 100" x="0px" y="0px" fill-rule="evenodd"><defs><style type="text/css">
   
    .fil0 {fill:black}
   
  </style></defs><path style="" d="m 11.796224,8.5000052 c 3.747918,0 6.796225,3.4020998 6.796225,7.6547248 0,4.202594 -3.048307,7.654725 -6.796225,7.654725 C 8.048306,23.809455 5,20.407355 5,16.15473 5,11.952136 8.048306,8.5000052 11.796224,8.5000052 z" fill="#000000"></path><path style="" d="m 7.398667,62.333232 0,23.764668 c 0,1.851143 1.54914,3.4021 3.398113,3.4021 l 2.048861,0 c 1.848973,0 3.398113,-1.550957 3.398113,-3.4021 l 0,-23.764668 2.348695,0 0,-23.764668 4.197668,4.202594 c 0.799556,0.800494 1.948918,1.100679 2.998335,0.950587 l 0,0 0.04997,0 0.04997,0 0.04997,0 0.04997,0 0.04997,0 c 0.299833,-0.05003 0.599667,-0.200124 0.8995,-0.350216 l 11.743477,-6.8042 c 1.599111,-0.950587 2.148806,-3.001853 1.249306,-4.652872 l 0,0 C 38.981112,30.313469 36.93225,29.763129 35.283166,30.663685 l -9.494725,5.503397 -8.445309,-8.305126 c -1.499167,-1.450896 -3.248196,-2.801729 -5.496946,-2.801729 -3.747918,0 -6.796225,3.051883 -6.796225,6.804199 l 0,30.518837 2.348695,0 z" fill="#000000"></path><path style="" d="m 59.169908,42.671096 12.193227,-3.252007 5.896724,-5.903644 -0.04997,-0.350216 c -0.549695,-3.702285 2.048861,-7.154416 5.746807,-7.704755 3.697946,-0.55034 7.146031,2.051266 7.695725,5.753551 l 4.347589,30.218651 -2.298727,0.350216 0,24.315008 c 0,1.851143 -1.549139,3.4021 -3.398112,3.4021 l -2.048862,0 c -1.848973,0 -3.398112,-1.550957 -3.398112,-3.4021 l 0,-23.014205 -2.298724,0.350216 -3.098278,-21.513278 -2.648529,2.651637 c -0.44975,0.550339 -1.049417,0.950586 -1.749029,1.15071 l -13.142699,3.502162 c -1.799,0.500308 -3.647973,-0.600371 -4.147696,-2.401483 -0.499722,-1.801111 0.599667,-3.652254 2.398668,-4.152563 z" fill="#000000"></path><path style="" d="m 78.609109,9.400561 c -3.747918,0 -6.796224,3.4021 -6.796224,7.654725 0,4.202594 3.048306,7.654724 6.796224,7.654724 3.747918,0 6.796225,-3.402099 6.796225,-7.654724 0,-4.202594 -3.048307,-7.654725 -6.796225,-7.654725 z" fill="#000000"></path><rect class="fil0" x="38.631317" y="66.836006" width="22.587452" height="22.613958" rx="4.4975014" ry="4.502779" style="" fill="#000000"></rect><path class="fil0" d="m 43.128819,41.970664 13.542477,0 c 0.349806,0 0.649639,0.05003 0.999445,0.100062 -1.649084,1.000617 -2.548584,3.051883 -1.99889,5.003088 0.649639,2.401482 3.148251,3.852377 5.546919,3.201976 l 0,9.756022 c 0,2.501544 -2.048862,4.502779 -4.497502,4.502779 l -13.542477,0 c -2.498612,0 -4.497501,-2.051266 -4.497501,-4.502779 l 0,-13.558369 c 0,-2.501544 2.048861,-4.502779 4.497501,-4.502779 z" style="" fill="#000000"></path><path class="fil0" d="m 27.387563,22.458621 11.693504,-6.904262 c 2.148807,-1.250772 4.947252,-0.550339 6.196558,1.600988 l 6.896169,11.707226 c 1.249306,2.151328 0.549695,4.953058 -1.599111,6.20383 l -11.693504,6.904261 c -1.948918,1.15071 -4.347585,0.650401 -5.746808,-1.000618 l 6.096613,-3.502161 c 2.148807,-1.250772 2.89839,-4.052502 1.649084,-6.203829 -1.249306,-2.151328 -4.047751,-2.901791 -6.196558,-1.651019 l -6.196557,3.602223 -2.648529,-4.55281 c -1.249306,-2.151328 -0.549695,-4.953057 1.599112,-6.203829 z" style="" fill="#000000"></path></svg>