<svg xmlns="http://www.w3.org/2000/svg" xmlns:xlink="http://www.w3.org/1999/xlink" version="1.1" x="0px" y="0px" viewBox="0 0 100 100" enable-background="new 0 0 100 100" xml:space="preserve"><circle fill="#000000" cx="17.489" cy="28.478" r="7.482"></circle><path fill="#000000" d="M24.007,90.271V65.228c0-0.091-0.02-0.176-0.027-0.263h1.189c2.651,0,4.804-2.152,4.804-4.804l0,0V42.803  c0-2.654-2.149-4.808-4.801-4.808H9.805C7.15,37.996,5,40.149,5,42.803v17.354c0,2.655,2.15,4.808,4.803,4.808h1.192  c-0.008,0.087-0.026,0.172-0.026,0.261v25.045c0,2.047,1.658,3.702,3.705,3.702h5.628C22.353,93.973,24.007,92.313,24.007,90.271z"></path><circle fill="#000000" cx="50.004" cy="28.478" r="7.482"></circle><path fill="#000000" d="M56.521,90.271V65.228c0-0.091-0.023-0.176-0.023-0.263h1.188c2.654,0,4.801-2.152,4.801-4.804h0.004V42.803  c0-2.654-2.15-4.808-4.805-4.808H42.315c-2.655,0-4.804,2.153-4.804,4.808v17.354c0,2.655,2.149,4.808,4.801,4.808h1.192  c-0.007,0.087-0.03,0.172-0.03,0.261v25.045c0,2.047,1.662,3.702,3.708,3.702h5.629C54.863,93.973,56.521,92.313,56.521,90.271z"></path><circle fill="#000000" cx="82.516" cy="28.478" r="7.482"></circle><path fill="#000000" d="M90.206,37.999H74.834c-2.654,0-4.805,2.15-4.805,4.804v17.358c0,2.653,2.15,4.804,4.805,4.804h1.19  c-0.006,0.087-0.029,0.172-0.029,0.263v25.045c0,2.045,1.659,3.703,3.7,3.703h5.633c2.045,0,3.707-1.658,3.707-3.703V65.226  c0-0.093-0.02-0.177-0.026-0.261h1.188c2.65,0,4.804-2.152,4.804-4.808l0,0V42.803C95.007,40.149,92.857,37.999,90.206,37.999z"></path><circle fill="#000000" cx="33.747" cy="13.51" r="7.486"></circle><circle fill="#000000" cx="66.262" cy="13.51" r="7.482"></circle></svg>